Coordinates
version=1
nRows=6
nColumns=46
inDegrees=yes

Units are S.I. units (second, meters, Newtons, ...)
Angles are in degrees.

endheader
time	pelvis_tilt	pelvis_list	pelvis_rotation	pelvis_tx	pelvis_ty	pelvis_tz	bb_angle	bb_tx	bb_ty	bb_tz	hip_flexion_r	hip_adduction_r	hip_rotation_r	knee_angle_r	knee_angle_r_beta	ankle_angle_r	subtalar_angle_r	mtp_angle_r	crank_angle_r	hip_flexion_l	hip_adduction_l	hip_rotation_l	knee_angle_l	knee_angle_l_beta	ankle_angle_l	subtalar_angle_l	mtp_angle_l	crank_angle_l	lumbar_extension	lumbar_bending	lumbar_rotation	arm_flex_r	arm_add_r	arm_rot_r	elbow_flex_r	pro_sup_r	wrist_flex_r	wrist_dev_r	arm_flex_l	arm_add_l	arm_rot_l	elbow_flex_l	pro_sup_l	wrist_flex_l	wrist_dev_l
      5.00000000	    -20.67138263	    -10.02032301	      5.56419284	      0.34443604	      1.14227486	     -0.28110923	      0.00000000	      0.50000000	      0.00000000	      0.25000000	     55.53836555	     -0.76744340	     -5.27650876	     93.82712935	      1.63759233	    -11.16954526	    -10.21097933	      0.00000000	      0.00000000	     49.06884115	     -4.25581531	     13.49953831	     45.25370758	      0.78982620	    -10.41386697	    -18.39629433	      0.00000000	      0.00000000	    -59.61960225	      4.50487967	     -3.54185003	     76.11921277	     -5.06829482	     49.35986024	     27.68992740	     46.47687033	      0.00000000	      0.00000000	     61.05193756	    -25.91586591	     34.11643610	     71.66777183	     50.01273274	      0.00000000	      0.00000000
      5.00500000	    -20.62879704	    -10.82392318	      5.22623586	      0.34425936	      1.14149581	     -0.28142125	      0.00000000	      0.50000000	      0.00000000	      0.25000000	     56.78940965	     -0.43892345	     -5.87461849	     95.70215650	      1.67031773	     -9.80333895	     -9.95524786	      0.00000000	      0.00000000	     47.85759455	     -5.50506917	     13.32522716	     43.26616306	      0.75513700	    -11.76828767	    -17.80861601	      0.00000000	      0.00000000	    -59.55466775	      4.94855138	     -2.88222106	     76.22578162	     -4.88617579	     49.43009456	     27.74956330	     46.48711845	      0.00000000	      0.00000000	     60.87833900	    -26.16441976	     34.06941917	     71.58976557	     49.99151776	      0.00000000	      0.00000000
      5.01000000	    -20.47610238	    -11.29279709	      4.84535693	      0.34413570	      1.14108533	     -0.28199008	      0.00000000	      0.50000000	      0.00000000	      0.25000000	     57.93261873	     -0.40617276	     -6.14598279	     97.53742565	      1.70234922	     -8.09170827	     -8.63294429	      0.00000000	      0.00000000	     46.36178442	     -6.48835528	     12.89000493	     41.22055372	      0.71943438	    -13.73418291	    -17.92034969	      0.00000000	      0.00000000	    -59.63513129	      5.17579277	     -2.51992400	     76.45821318	     -4.49518804	     49.83209071	     27.47059611	     46.49932010	      0.00000000	      0.00000000	     60.74765929	    -26.56012790	     34.09992212	     71.44766041	     49.97430694	      0.00000000	      0.00000000
      5.01500000	    -20.50326079	    -11.94484653	      4.49782731	      0.34391167	      1.14045036	     -0.28246040	      0.00000000	      0.50000000	      0.00000000	      0.25000000	     59.29544910	     -0.30934540	     -6.71398050	     99.22029314	      1.73172080	     -7.18089634	     -8.58276710	      0.00000000	      0.00000000	     45.17448939	     -7.62789145	     12.42565270	     39.29449191	      0.68581826	    -14.90940106	    -17.28838431	      0.00000000	      0.00000000	    -59.52241933	      5.62441062	     -1.97041632	     76.60755513	     -4.25495276	     49.97002107	     27.37662740	     46.49773924	      0.00000000	      0.00000000	     60.58966762	    -26.84429554	     34.09876049	     71.32905765	     49.95487537	      0.00000000	      0.00000000
      5.02000000	    -20.41112696	    -12.22348742	      4.02025582	      0.34383022	      1.14028609	     -0.28285727	      0.00000000	      0.50000000	      0.00000000	      0.25000000	     60.53850361	     -0.36491721	     -6.86724386	    100.80772283	      1.75942667	     -6.12592461	     -7.98623768	      0.00000000	      0.00000000	     43.65974872	     -8.56493528	     11.54821804	     37.28829282	      0.65080348	    -16.44811987	    -17.05758108	      0.00000000	      0.00000000	    -59.58473745	      5.65802326	     -1.73653714	     76.89975497	     -3.76476758	     50.46321315	     26.73397967	     46.47010053	      0.00000000	      0.00000000	     60.59087952	    -27.20949340	     34.22465886	     71.10574582	     49.93988988	      0.00000000	      0.00000000
      5.02500000	    -20.49156633	    -12.72327701	      3.72279344	      0.34353385	      1.13985187	     -0.28359267	      0.00000000	      0.50000000	      0.00000000	      0.25000000	     61.95525243	     -0.51093181	     -7.37747813	    102.21950623	      1.78406694	     -5.51602696	     -7.98059159	      0.00000000	      0.00000000	     42.49907184	     -9.52665687	     10.97121264	     35.53170276	      0.62014520	    -17.57471602	    -16.11711400	      0.00000000	      0.00000000	    -59.47750727	      6.06237497	     -1.29760471	     77.09976516	     -3.55261366	     50.60042223	     26.61567858	     46.46878184	      0.00000000	      0.00000000	     60.52275557	    -27.40555662	     34.27391519	     70.97167446	     49.92742939	      0.00000000	      0.00000000
